<svg xmlns="http://www.w3.org/2000/svg" viewBox="0 0 64 64">
  <rect width="64" height="64" rx="14" fill="#0E1A2B"/>
  <path d="M27 14 Q 25 18, 27 22" stroke="#5BC25B" stroke-width="2.5" fill="none" stroke-linecap="round"/>
  <path d="M32 10 L 32 22" stroke="#5BC25B" stroke-width="2.5" fill="none" stroke-linecap="round"/>
  <path d="M37 14 Q 39 18, 37 22" stroke="#5BC25B" stroke-width="2.5" fill="none" stroke-linecap="round"/>
  <path d="M32 22 C 19 22, 13 32, 13 42 C 13 51, 21 56, 32 56 C 43 56, 51 51, 51 42 C 51 32, 45 22, 32 22 Z" fill="#75AADB"/>
  <path d="M21 30 C 17 38, 17 48, 23 54" stroke="#FFFFFF" stroke-width="1.6" fill="none" opacity="0.55" stroke-linecap="round"/>
  <path d="M43 30 C 47 38, 47 48, 41 54" stroke="#FFFFFF" stroke-width="1.6" fill="none" opacity="0.55" stroke-linecap="round"/>
  <path d="M32 24 L 32 54" stroke="#FFFFFF" stroke-width="1" fill="none" opacity="0.35" stroke-linecap="round"/>
</svg>
